{
  "accessors": [
    {
      "bufferView": 2,
      "componentType": 5126,
      "count": 914,
      "max": [
        1.566500186920166,
        -0.17353689670562744,
        3.801917314529419
      ],
      "min": [
        -8.206201553344727,
        -1.180604100227356,
        -14.097391128540039
      ],
      "type": "VEC3"
    },
    {
      "bufferView": 2,
      "byteOffset": 10968,
      "componentType": 5126,
      "count": 914,
      "max": [
        0.9820208549499512,
        1.0,
        0.9989535808563232
      ],
      "min": [
        -0.9820210337638855,
        -0.9922304749488831,
        -0.9884280562400818
      ],
      "type": "VEC3"
    },
    {
      "bufferView": 1,
      "componentType": 5126,
      "count": 914,
      "max": [
        0.889732837677002,
        0.9903103709220886
      ],
      "min": [
        0.019250907003879547,
        0.004950494505465031
      ],
      "type": "VEC2"
    },
    {
      "bufferView": 0,
      "componentType": 5125,
      "count": 4977,
      "type": "SCALAR"
    },
    {
      "bufferView": 2,
      "byteOffset": 21936,
      "componentType": 5126,
      "count": 11545,
      "max": [
        -0.19631242752075195,
        2.7233195304870605,
        1.5432066917419434
      ],
      "min": [
        -6.365673542022705,
        -0.835888147354126,
        -10.982841491699219
      ],
      "type": "VEC3"
    },
    {
      "bufferView": 2,
      "byteOffset": 160476,
      "componentType": 5126,
      "count": 11545,
      "max": [
        0.9993495345115662,
        0.9999129772186279,
        0.999825119972229
      ],
      "min": [
        -0.9991724491119385,
        -0.9999608993530273,
        -0.9997909665107727
      ],
      "type": "VEC3"
    },
    {
      "bufferView": 3,
      "componentType": 5126,
      "count": 11545,
      "max": [
        0.9996236562728882,
        1.0,
        0.9997655749320984,
        1.0
      ],
      "min": [
        -0.9997513294219971,
        -0.9999781847000122,
        -0.9999091029167175,
        -1.0
      ],
      "type": "VEC4"
    },
    {
      "bufferView": 1,
      "byteOffset": 7312,
      "componentType": 5126,
      "count": 11545,
      "max": [
        0.9913122653961182,
        0.9950496554374695
      ],
      "min": [
        0.0036816000938415527,
        0.004950493574142456
      ],
      "type": "VEC2"
    },
    {
      "bufferView": 0,
      "byteOffset": 19908,
      "componentType": 5125,
      "count": 20532,
      "type": "SCALAR"
    }
  ],
  "asset": {
    "extras": {
      "author": "Václav Pleticha (https://sketchfab.com/klidas8)",
      "license": "CC-BY-4.0 (http://creativecommons.org/licenses/by/4.0/)",
      "source": "https://sketchfab.com/3d-models/cakes-6f84da06d7294d53bad576a02abd9c57",
      "title": "Cakes"
    },
    "generator": "Sketchfab-12.65.0",
    "version": "2.0"
  },
  "bufferViews": [
    {
      "buffer": 0,
      "byteLength": 102036,
      "name": "floatBufferViews",
      "target": 34963
    },
    {
      "buffer": 0,
      "byteLength": 99672,
      "byteOffset": 102036,
      "byteStride": 8,
      "name": "floatBufferViews",
      "target": 34962
    },
    {
      "buffer": 0,
      "byteLength": 299016,
      "byteOffset": 201708,
      "byteStride": 12,
      "name": "floatBufferViews",
      "target": 34962
    },
    {
      "buffer": 0,
      "byteLength": 184720,
      "byteOffset": 500724,
      "byteStride": 16,
      "name": "floatBufferViews",
      "target": 34962
    }
  ],
  "buffers": [
    {
      "byteLength": 685444,
      "uri": "scene.bin"
    }
  ],
  "images": [
    {
      "uri": "textures/spoon_2objphong1_baseColor.jpeg"
    },
    {
      "uri": "textures/spoon_2objphong1_metallicRoughness.png"
    },
    {
      "uri": "textures/spoon_2objphong2_baseColor.png"
    },
    {
      "uri": "textures/spoon_2objphong2_metallicRoughness.png"
    },
    {
      "uri": "textures/spoon_2objphong2_normal.png"
    }
  ],
  "materials": [
    {
      "doubleSided": true,
      "name": "spoon_2objphong1",
      "pbrMetallicRoughness": {
        "baseColorTexture": {
          "index": 0
        },
        "metallicRoughnessTexture": {
          "index": 1
        }
      }
    },
    {
      "alphaMode": "BLEND",
      "doubleSided": true,
      "name": "spoon_2objphong2",
      "normalTexture": {
        "index": 4
      },
      "occlusionTexture": {
        "index": 3
      },
      "pbrMetallicRoughness": {
        "baseColorTexture": {
          "index": 2
        },
        "metallicRoughnessTexture": {
          "index": 3
        }
      }
    }
  ],
  "meshes": [
    {
      "name": "spoon_2obj:spoon_2obj:spoon_2obj:polySurface1_spoon_2obj:phong1_0",
      "primitives": [
        {
          "attributes": {
            "NORMAL": 1,
            "POSITION": 0,
            "TEXCOORD_0": 2
          },
          "indices": 3,
          "material": 0,
          "mode": 4
        }
      ]
    },
    {
      "name": "spoon_2obj:spoon_2obj:spoon_2obj:polySurface1_spoon_2obj:phong2_0",
      "primitives": [
        {
          "attributes": {
            "NORMAL": 5,
            "POSITION": 4,
            "TANGENT": 6,
            "TEXCOORD_0": 7
          },
          "indices": 8,
          "material": 1,
          "mode": 4
        }
      ]
    }
  ],
  "nodes": [
    {
      "children": [
        1
      ],
      "matrix": [
        1.0,
        0.0,
        0.0,
        0.0,
        0.0,
        2.220446049250313e-16,
        -1.0,
        0.0,
        0.0,
        1.0,
        2.220446049250313e-16,
        0.0,
        0.0,
        0.0,
        0.0,
        1.0
      ],
      "name": "Sketchfab_model"
    },
    {
      "children": [
        2
      ],
      "matrix": [
        1.0,
        0.0,
        0.0,
        0.0,
        0.0,
        0.0,
        1.0,
        0.0,
        0.0,
        -1.0,
        0.0,
        0.0,
        0.0,
        0.0,
        0.0,
        1.0
      ],
      "name": "5558ddb5accf479c846b634fe4430955.fbx"
    },
    {
      "children": [
        3
      ],
      "name": "RootNode"
    },
    {
      "children": [
        4,
        5
      ],
      "matrix": [
        1.0,
        0.0,
        0.0,
        0.0,
        0.0,
        1.0,
        0.0,
        0.0,
        0.0,
        0.0,
        1.0,
        0.0,
        3.720438003540039,
        0.0,
        3.503713369369507,
        1.0
      ],
      "name": "spoon_2obj:spoon_2obj:spoon_2obj:polySurface1"
    },
    {
      "mesh": 0,
      "name": "spoon_2obj:spoon_2obj:spoon_2obj:polySurface1_spoon_2obj:phong1_0"
    },
    {
      "mesh": 1,
      "name": "spoon_2obj:spoon_2obj:spoon_2obj:polySurface1_spoon_2obj:phong2_0"
    }
  ],
  "samplers": [
    {
      "magFilter": 9729,
      "minFilter": 9987,
      "wrapS": 10497,
      "wrapT": 10497
    }
  ],
  "scene": 0,
  "scenes": [
    {
      "name": "Sketchfab_Scene",
      "nodes": [
        0
      ]
    }
  ],
  "textures": [
    {
      "sampler": 0,
      "source": 0
    },
    {
      "sampler": 0,
      "source": 1
    },
    {
      "sampler": 0,
      "source": 2
    },
    {
      "sampler": 0,
      "source": 3
    },
    {
      "sampler": 0,
      "source": 4
    }
  ]
}
