<svg width="185" height="29" viewBox="0 0 185 29" fill="none" xmlns="http://www.w3.org/2000/svg">
<path d="M12.1641 23.1309C12.0938 23.2598 11.9707 23.4941 11.7949 23.834C11.6309 24.1738 11.4023 24.5605 11.1094 24.9941C10.8281 25.416 10.4883 25.8555 10.0898 26.3125C9.69141 26.7695 9.23438 27.1914 8.71875 27.5781C8.20312 27.9531 7.62305 28.2637 6.97852 28.5098C6.3457 28.7559 5.6543 28.8789 4.9043 28.8789C4.23633 28.8789 3.64453 28.7559 3.12891 28.5098C2.61328 28.2754 2.17383 27.9414 1.81055 27.5078C1.44727 27.0625 1.17188 26.541 0.984375 25.9434C0.796875 25.3457 0.703125 24.6836 0.703125 23.957C0.703125 23.2539 0.802734 22.5977 1.00195 21.9883C1.20117 21.3672 1.4707 20.8281 1.81055 20.3711C2.16211 19.9141 2.56641 19.5566 3.02344 19.2988C3.48047 19.0293 3.9668 18.8945 4.48242 18.8945C4.86914 18.8945 5.2207 18.9648 5.53711 19.1055C5.85352 19.2344 6.11719 19.4102 6.32812 19.6328C6.55078 19.8555 6.7207 20.1016 6.83789 20.3711C6.9668 20.6406 7.03125 20.9102 7.03125 21.1797C7.03125 21.4375 6.99609 21.6777 6.92578 21.9004C6.86719 22.123 6.78516 22.3223 6.67969 22.498C6.58594 22.6621 6.47461 22.7969 6.3457 22.9023C6.2168 22.9961 6.08789 23.043 5.95898 23.043C5.75977 23.043 5.5957 22.9785 5.4668 22.8496C5.34961 22.7207 5.29102 22.5625 5.29102 22.375C5.29102 22.2812 5.30859 22.1992 5.34375 22.1289C5.39062 22.0586 5.4375 21.9883 5.48438 21.918C5.54297 21.8359 5.58984 21.7422 5.625 21.6367C5.67188 21.5195 5.69531 21.373 5.69531 21.1973C5.69531 20.9512 5.57812 20.7285 5.34375 20.5293C5.12109 20.3301 4.83398 20.2305 4.48242 20.2305C4.1543 20.2305 3.83789 20.3301 3.5332 20.5293C3.24023 20.7285 2.98242 20.998 2.75977 21.3379C2.53711 21.666 2.35547 22.0586 2.21484 22.5156C2.08594 22.9609 2.02148 23.4355 2.02148 23.9395C2.02148 24.4199 2.08008 24.877 2.19727 25.3105C2.31445 25.7441 2.49023 26.1309 2.72461 26.4707C2.95898 26.7988 3.25195 27.0625 3.60352 27.2617C3.9668 27.4609 4.39453 27.5605 4.88672 27.5605C5.51953 27.5605 6.10547 27.4492 6.64453 27.2266C7.18359 26.9922 7.67578 26.6992 8.12109 26.3477C8.56641 25.9961 8.95898 25.6152 9.29883 25.2051C9.63867 24.7832 9.92578 24.3906 10.1602 24.0273C10.4062 23.6523 10.5938 23.3301 10.7227 23.0605C10.8633 22.7793 10.9453 22.6035 10.9688 22.5332C11.0156 22.416 11.0918 22.3281 11.1973 22.2695C11.3145 22.1992 11.4375 22.1641 11.5664 22.1641C11.7656 22.1641 11.9238 22.2344 12.041 22.375C12.1699 22.5156 12.2344 22.6738 12.2344 22.8496C12.2344 22.9199 12.2109 23.0137 12.1641 23.1309ZM24.5566 23.0957C24.5098 23.1895 24.4102 23.3887 24.2578 23.6934C24.1172 23.9863 23.9297 24.3262 23.6953 24.7129C23.4727 25.0996 23.209 25.5039 22.9043 25.9258C22.5996 26.3477 22.2598 26.7344 21.8848 27.0859C21.5098 27.4375 21.1055 27.7305 20.6719 27.9648C20.2383 28.1875 19.7812 28.2988 19.3008 28.2988C18.6211 28.2988 18.0469 28.082 17.5781 27.6484C17.1211 27.2148 16.7871 26.6699 16.5762 26.0137C16.1777 26.6816 15.7031 27.2148 15.1523 27.6133C14.6016 28 14.0508 28.1934 13.5 28.1934C13.0664 28.1934 12.6738 28.1172 12.3223 27.9648C11.9707 27.8008 11.6719 27.5781 11.4258 27.2969C11.1797 27.0039 10.9863 26.6641 10.8457 26.2773C10.7168 25.8906 10.6523 25.4688 10.6523 25.0117C10.6523 24.0977 10.8047 23.2949 11.1094 22.6035C11.4258 21.9004 11.8242 21.3145 12.3047 20.8457C12.7852 20.377 13.3125 20.0254 13.8867 19.791C14.4727 19.5566 15.0352 19.4395 15.5742 19.4395C15.9375 19.4395 16.2715 19.4922 16.5762 19.5977C16.8809 19.6914 17.1387 19.7969 17.3496 19.9141C17.5723 20.0312 17.7422 20.1426 17.8594 20.248C17.9766 20.3418 18.041 20.3945 18.0527 20.4062C18.1816 20.5586 18.2461 20.7168 18.2461 20.8809C18.2461 21.0566 18.1816 21.2148 18.0527 21.3555C17.9238 21.4844 17.7715 21.5488 17.5957 21.5488C17.4082 21.5488 17.25 21.4844 17.1211 21.3555C17.0977 21.332 17.0449 21.291 16.9629 21.2324C16.8809 21.1621 16.7695 21.0918 16.6289 21.0215C16.4883 20.9512 16.3184 20.8926 16.1191 20.8457C15.9316 20.7871 15.7148 20.7578 15.4688 20.7578C15.1055 20.7578 14.7188 20.8398 14.3086 21.0039C13.8984 21.168 13.5234 21.4258 13.1836 21.7773C12.8438 22.1172 12.5566 22.5508 12.3223 23.0781C12.0996 23.5938 11.9883 24.209 11.9883 24.9238C11.9883 25.1465 12.0117 25.375 12.0586 25.6094C12.1055 25.832 12.1875 26.0371 12.3047 26.2246C12.4219 26.4121 12.5801 26.5645 12.7793 26.6816C12.9785 26.7988 13.2246 26.8574 13.5176 26.8574C13.7285 26.8574 13.9688 26.7871 14.2383 26.6465C14.5195 26.5059 14.7832 26.2891 15.0293 25.9961C15.2871 25.7031 15.5156 25.334 15.7148 24.8887C15.9258 24.4434 16.0723 23.916 16.1543 23.3066C16.1777 23.1426 16.2539 23.0078 16.3828 22.9023C16.5117 22.7852 16.6641 22.7266 16.8398 22.7266C17.0039 22.7266 17.1445 22.791 17.2617 22.9199C17.3906 23.0488 17.4609 23.1953 17.4727 23.3594C17.4844 23.582 17.5078 23.8984 17.543 24.3086C17.5781 24.707 17.6543 25.1055 17.7715 25.5039C17.9004 25.9023 18.0879 26.248 18.334 26.541C18.5801 26.834 18.9199 26.9805 19.3535 26.9805C19.6348 26.9805 19.9102 26.9043 20.1797 26.752C20.4609 26.5996 20.7305 26.4004 20.9883 26.1543C21.2578 25.8965 21.5098 25.6094 21.7441 25.293C21.9902 24.9648 22.2129 24.6367 22.4121 24.3086C22.6113 23.9805 22.7871 23.6641 22.9395 23.3594C23.0918 23.0547 23.2207 22.791 23.3262 22.5684C23.3848 22.4395 23.4668 22.3398 23.5723 22.2695C23.6895 22.1992 23.8125 22.1641 23.9414 22.1641C24.1406 22.1641 24.2988 22.2402 24.416 22.3926C24.5449 22.5332 24.6094 22.6855 24.6094 22.8496C24.6094 22.9316 24.5918 23.0137 24.5566 23.0957ZM27.7734 25.8379C27.9727 26.2832 28.3008 26.6406 28.7578 26.9102C29.2148 27.168 29.7305 27.2969 30.3047 27.2969C30.4805 27.2969 30.7676 27.2734 31.166 27.2266C31.5645 27.168 32.0215 26.9922 32.5371 26.6992C33.0645 26.3945 33.6211 25.9199 34.207 25.2754C34.793 24.6309 35.3613 23.7227 35.9121 22.5508C35.9707 22.4219 36.0527 22.3281 36.1582 22.2695C36.2637 22.1992 36.3809 22.1641 36.5098 22.1641C36.709 22.1641 36.8672 22.2344 36.9844 22.375C37.1133 22.5156 37.1777 22.668 37.1777 22.832C37.1777 22.9023 37.1543 22.9961 37.1074 23.1133C36.6973 23.9688 36.2402 24.7363 35.7363 25.416C35.2324 26.084 34.6875 26.6582 34.1016 27.1387C33.5156 27.6074 32.9004 27.9648 32.2559 28.2109C31.623 28.4688 30.9727 28.5977 30.3047 28.5977C29.7773 28.5977 29.2793 28.5156 28.8105 28.3516C28.3535 28.1875 27.9551 27.9707 27.6152 27.7012C27.2871 27.4199 27.0234 27.1094 26.8242 26.7695C26.6367 26.418 26.543 26.0605 26.543 25.6973C26.543 25.6504 26.5488 25.5859 26.5605 25.5039C26.5723 25.4219 26.6016 25.334 26.6484 25.2402C26.707 25.1348 26.7832 25.041 26.877 24.959C26.9824 24.8652 27.123 24.7891 27.2988 24.7305C27.7793 24.5898 28.2188 24.4199 28.6172 24.2207C29.0273 24.0098 29.3789 23.7754 29.6719 23.5176C29.9648 23.2598 30.1934 22.9785 30.3574 22.6738C30.5215 22.3574 30.6035 22.0176 30.6035 21.6543C30.6035 21.3379 30.498 21.0801 30.2871 20.8809C30.0762 20.6816 29.8184 20.582 29.5137 20.582C29.1973 20.582 28.8867 20.6934 28.582 20.916C28.2773 21.127 27.9785 21.4141 27.6855 21.7773C27.4043 22.1289 27.1348 22.5391 26.877 23.0078C26.6191 23.4648 26.3789 23.9453 26.1562 24.4492C25.9453 24.9531 25.7578 25.457 25.5938 25.9609C25.4297 26.4531 25.2949 26.9102 25.1895 27.332C25.1543 27.4609 25.1133 27.6016 25.0664 27.7539C25.0312 27.9062 24.9727 28.0469 24.8906 28.1758C24.8086 28.3164 24.709 28.4277 24.5918 28.5098C24.4746 28.6035 24.3223 28.6504 24.1348 28.6504C23.959 28.6504 23.7891 28.5742 23.625 28.4219C23.4609 28.2812 23.3789 28.0352 23.3789 27.6836C23.3789 27.6133 23.3789 27.3438 23.3789 26.875C23.3906 26.4062 23.4023 25.7969 23.4141 25.0469C23.4258 24.2852 23.4375 23.418 23.4492 22.4453C23.4727 21.4609 23.4902 20.4238 23.502 19.334C23.5137 18.2324 23.5312 17.1016 23.5547 15.9414C23.5781 14.7812 23.5957 13.6504 23.6074 12.5488C23.6191 11.4473 23.6309 10.4043 23.6426 9.41992C23.666 8.42383 23.6836 7.54492 23.6953 6.7832C23.707 6.00977 23.7129 5.38281 23.7129 4.90234C23.7246 4.41016 23.7305 4.11719 23.7305 4.02344C23.7305 3.83594 23.8008 3.68359 23.9414 3.56641C24.082 3.4375 24.2344 3.37305 24.3984 3.37305C24.5859 3.37305 24.7441 3.4375 24.873 3.56641C25.002 3.68359 25.0664 3.8418 25.0664 4.04102C25.0664 4.06445 25.0605 4.29883 25.0488 4.74414C25.0488 5.17773 25.043 5.76367 25.0312 6.50195C25.0195 7.24023 25.002 8.10156 24.9785 9.08594C24.9668 10.0703 24.9492 11.1191 24.9258 12.2324C24.9141 13.334 24.8965 14.4707 24.873 15.6426C24.8613 16.8145 24.8438 17.957 24.8203 19.0703C24.8086 20.1836 24.7969 21.2441 24.7852 22.252C24.7734 23.2598 24.7617 24.1504 24.75 24.9238C24.9375 24.3262 25.1777 23.6992 25.4707 23.043C25.7637 22.375 26.1094 21.7598 26.5078 21.1973C26.9062 20.6348 27.3516 20.1719 27.8438 19.8086C28.3477 19.4453 28.9043 19.2637 29.5137 19.2637C29.8535 19.2637 30.1699 19.3281 30.4629 19.457C30.7559 19.5742 31.0078 19.7441 31.2188 19.9668C31.4414 20.1777 31.6113 20.4297 31.7285 20.7227C31.8574 21.0156 31.9219 21.332 31.9219 21.6719C31.9219 22.1992 31.8047 22.6855 31.5703 23.1309C31.3359 23.5645 31.0254 23.957 30.6387 24.3086C30.252 24.6484 29.8066 24.9473 29.3027 25.2051C28.8105 25.4629 28.3008 25.6738 27.7734 25.8379ZM38.0391 26.0664C38.2852 26.4062 38.6016 26.6816 38.9883 26.8926C39.375 27.0918 39.8496 27.1914 40.4121 27.1914C40.9863 27.1914 41.5078 27.0566 41.9766 26.7871C42.4453 26.5059 42.873 26.1426 43.2598 25.6973C43.6465 25.252 43.9922 24.7539 44.2969 24.2031C44.6016 23.6523 44.877 23.1016 45.123 22.5508C45.1816 22.4219 45.2637 22.3281 45.3691 22.2695C45.4746 22.1992 45.5918 22.1641 45.7207 22.1641C45.9199 22.1641 46.0781 22.2344 46.1953 22.375C46.3242 22.5156 46.3887 22.668 46.3887 22.832C46.3887 22.8906 46.3828 22.9434 46.3711 22.9902C46.3594 23.0254 46.3418 23.0664 46.3184 23.1133C45.5098 24.8945 44.625 26.2363 43.6641 27.1387C42.7148 28.041 41.6367 28.5039 40.4297 28.5273C39.6562 28.5273 38.9883 28.375 38.4258 28.0703C37.8633 27.7773 37.4004 27.3965 37.0371 26.9277C36.6738 26.4473 36.4043 25.9082 36.2285 25.3105C36.0527 24.7129 35.9648 24.1152 35.9648 23.5176C35.9648 22.9199 36.0352 22.3691 36.1758 21.8652C36.3281 21.3613 36.5391 20.9219 36.8086 20.5469C37.0898 20.1719 37.418 19.8789 37.793 19.668C38.1797 19.457 38.6016 19.3516 39.0586 19.3516C39.3281 19.3516 39.5918 19.4102 39.8496 19.5273C40.1191 19.6328 40.3594 19.791 40.5703 20.002C40.7812 20.2012 40.9512 20.4473 41.0801 20.7402C41.209 21.0332 41.2734 21.3672 41.2734 21.7422C41.2734 22.2227 41.1914 22.6738 41.0273 23.0957C40.8633 23.5176 40.6348 23.9102 40.3418 24.2734C40.0605 24.6367 39.7207 24.9707 39.3223 25.2754C38.9238 25.5801 38.4961 25.8438 38.0391 26.0664ZM37.5117 24.9238C37.875 24.7715 38.2031 24.5781 38.4961 24.3438C38.8008 24.1094 39.0586 23.8516 39.2695 23.5703C39.4805 23.2891 39.6445 22.9961 39.7617 22.6914C39.8789 22.375 39.9375 22.0586 39.9375 21.7422C39.9375 21.3906 39.8496 21.127 39.6738 20.9512C39.498 20.7637 39.293 20.6699 39.0586 20.6699C38.7422 20.6699 38.4727 20.7578 38.25 20.9336C38.0273 21.1094 37.8457 21.3379 37.7051 21.6191C37.5645 21.9004 37.459 22.2168 37.3887 22.5684C37.3301 22.9082 37.3008 23.248 37.3008 23.5879C37.3008 23.7988 37.3184 24.0215 37.3535 24.2559C37.4004 24.4902 37.4531 24.7129 37.5117 24.9238ZM91.2305 1.5625C91.207 1.73828 91.1309 1.87891 91.002 1.98438C90.873 2.08984 90.7266 2.14258 90.5625 2.14258C90.5391 2.14258 90.498 2.14258 90.4395 2.14258C90.3809 2.13086 90.2461 2.125 90.0352 2.125C89.8125 2.125 89.5254 2.14844 89.1738 2.19531C88.834 2.24219 88.4531 2.3418 88.0312 2.49414C87.6211 2.63477 87.1875 2.8457 86.7305 3.12695C86.2852 3.4082 85.8457 3.78906 85.4121 4.26953C84.9785 4.73828 84.5684 5.32422 84.1816 6.02734C83.7949 6.71875 83.4668 7.55664 83.1973 8.54102C83.0566 9.0332 82.8926 9.74219 82.7051 10.668C82.5293 11.582 82.3359 12.6133 82.125 13.7617C81.9258 14.9102 81.7207 16.1348 81.5098 17.4355C81.3105 18.7363 81.1172 20.0137 80.9297 21.2676C80.7539 22.5215 80.5898 23.7168 80.4375 24.8535C80.2852 25.9785 80.168 26.9453 80.0859 27.7539C80.0625 27.9062 79.9922 28.041 79.875 28.1582C79.7695 28.2871 79.6348 28.3516 79.4707 28.3516C79.3066 28.3516 79.1602 28.3105 79.0312 28.2285C78.9141 28.1465 78.832 28.0234 78.7852 27.8594C78.6328 27.2969 78.3926 26.5176 78.0645 25.5215C77.7363 24.5254 77.3555 23.4062 76.9219 22.1641C76.5 20.9102 76.0371 19.5801 75.5332 18.1738C75.0293 16.7676 74.5254 15.3789 74.0215 14.0078C73.5293 12.625 73.0488 11.3066 72.5801 10.0527C72.123 8.78711 71.7188 7.67383 71.3672 6.71289C71.3086 7.36914 71.2148 8.10156 71.0859 8.91016C70.9688 9.70703 70.8047 10.5684 70.5938 11.4941C70.3945 12.4082 70.1426 13.3809 69.8379 14.4121C69.5332 15.4316 69.1699 16.4922 68.748 17.5938C68.0918 19.2812 67.3184 20.7227 66.4277 21.918C65.5488 23.1133 64.623 24.1094 63.6504 24.9062C62.6777 25.7031 61.6875 26.3359 60.6797 26.8047C59.6836 27.2617 58.7461 27.6074 57.8672 27.8418C56.9883 28.0762 56.1973 28.2227 55.4941 28.2812C54.791 28.3516 54.252 28.3867 53.877 28.3867C52.5879 28.3867 51.3984 28.2168 50.3086 27.877C49.2305 27.5371 48.293 27.0566 47.4961 26.4355C46.7109 25.8027 46.0957 25.0527 45.6504 24.1855C45.2168 23.3066 45 22.3398 45 21.2852C45 20.3359 45.2109 19.4512 45.6328 18.6309C46.0664 17.7988 46.6406 17.0781 47.3555 16.4688C48.082 15.8594 48.9082 15.3789 49.834 15.0273C50.7715 14.6758 51.7441 14.5 52.752 14.5C53.584 14.5 54.3281 14.582 54.9844 14.7461C55.6523 14.9102 56.2383 15.1211 56.7422 15.3789C57.2578 15.625 57.6973 15.8945 58.0605 16.1875C58.4355 16.4805 58.7402 16.7617 58.9746 17.0312C59.2207 17.2891 59.4023 17.5117 59.5195 17.6992C59.6484 17.8867 59.7246 17.998 59.748 18.0332C59.7949 18.127 59.8184 18.2324 59.8184 18.3496C59.8184 18.5137 59.7539 18.666 59.625 18.8066C59.5078 18.9473 59.3496 19.0176 59.1504 19.0176C58.8926 19.0176 58.6992 18.9004 58.5703 18.666C58.5586 18.6309 58.4414 18.4668 58.2188 18.1738C58.0078 17.8691 57.6738 17.541 57.2168 17.1895C56.7715 16.8379 56.1914 16.5215 55.4766 16.2402C54.7617 15.9473 53.8945 15.8008 52.875 15.8008C52.043 15.8008 51.2285 15.9414 50.4316 16.2227C49.6465 16.5039 48.9492 16.8906 48.3398 17.3828C47.7305 17.875 47.2383 18.4609 46.8633 19.1406C46.5 19.8086 46.3184 20.5352 46.3184 21.3203C46.3184 22.1758 46.5176 22.9609 46.916 23.6758C47.3145 24.3789 47.8535 24.9824 48.5332 25.4863C49.2246 25.9902 50.0215 26.3828 50.9238 26.6641C51.8379 26.9336 52.8105 27.0684 53.8418 27.0684C54.2402 27.0684 54.7676 27.0391 55.4238 26.9805C56.0801 26.9219 56.8125 26.7871 57.6211 26.5762C58.4414 26.3652 59.3027 26.0488 60.2051 25.627C61.1074 25.1934 61.998 24.6074 62.877 23.8691C63.7559 23.1309 64.5938 22.2109 65.3906 21.1094C66.1992 20.0078 66.9082 18.6719 67.5176 17.1016C68.1504 15.4844 68.6426 13.9492 68.9941 12.4961C69.3574 11.0312 69.627 9.71289 69.8027 8.54102C69.9785 7.36914 70.084 6.37305 70.1191 5.55273C70.166 4.7207 70.1895 4.12891 70.1895 3.77734V3.42578C70.1895 3.23828 70.248 3.08008 70.3652 2.95117C70.4941 2.81055 70.6582 2.74023 70.8574 2.74023C71.1504 2.74023 71.3555 2.88672 71.4727 3.17969C71.5078 3.26172 71.6074 3.53711 71.7715 4.00586C71.9473 4.47461 72.1699 5.08398 72.4395 5.83398C72.7207 6.57227 73.0371 7.42773 73.3887 8.40039C73.752 9.37305 74.1328 10.4102 74.5312 11.5117C74.9297 12.6016 75.3398 13.7324 75.7617 14.9043C76.1836 16.0762 76.5938 17.2305 76.9922 18.3672C77.4023 19.5039 77.7891 20.5996 78.1523 21.6543C78.5156 22.709 78.8438 23.6699 79.1367 24.5371C79.2656 23.5996 79.4062 22.6094 79.5586 21.5664C79.7109 20.5117 79.8691 19.4512 80.0332 18.3848C80.209 17.3066 80.3789 16.252 80.543 15.2207C80.7188 14.1895 80.8887 13.2227 81.0527 12.3203C81.2285 11.418 81.3867 10.6094 81.5273 9.89453C81.668 9.17969 81.7969 8.60547 81.9141 8.17188C82.1719 7.14062 82.541 6.17969 83.0215 5.28906C83.502 4.38672 84.082 3.60156 84.7617 2.93359C85.4531 2.26562 86.2383 1.74414 87.1172 1.36914C88.0078 0.982422 88.9922 0.789062 90.0703 0.789062C90.4805 0.789062 90.7734 0.835938 90.9492 0.929688C91.1367 1.02344 91.2305 1.20508 91.2305 1.47461V1.5625ZM118.178 10.6504C118.178 12.0684 117.908 13.3398 117.369 14.4648C116.83 15.5781 116.068 16.5273 115.084 17.3125C114.1 18.0859 112.922 18.6836 111.551 19.1055C110.18 19.5156 108.668 19.7207 107.016 19.7207C106.816 19.7207 106.641 19.668 106.488 19.5625C106.348 19.4453 106.277 19.2754 106.277 19.0527C106.277 18.877 106.342 18.7246 106.471 18.5957C106.6 18.4668 106.758 18.4023 106.945 18.4023C108.422 18.4023 109.77 18.2324 110.988 17.8926C112.207 17.5527 113.25 17.0547 114.117 16.3984C114.984 15.7305 115.658 14.916 116.139 13.9551C116.619 12.9941 116.859 11.8926 116.859 10.6504C116.859 9.38477 116.578 8.25977 116.016 7.27539C115.465 6.29102 114.686 5.45898 113.678 4.7793C112.682 4.09961 111.486 3.58398 110.092 3.23242C108.709 2.88086 107.186 2.70508 105.521 2.70508C103.951 2.70508 102.428 2.83398 100.951 3.0918C99.4863 3.34961 98.1094 3.71289 96.8203 4.18164C95.5312 4.65039 94.3535 5.21289 93.2871 5.86914C92.2324 6.52539 91.3242 7.24609 90.5625 8.03125C89.8125 8.81641 89.2266 9.66016 88.8047 10.5625C88.3828 11.4531 88.1719 12.3789 88.1719 13.3398C88.1719 14.1836 88.3184 14.9219 88.6113 15.5547C88.9043 16.1875 89.291 16.7207 89.7715 17.1543C90.2637 17.5762 90.8262 17.8926 91.459 18.1035C92.0918 18.3145 92.7539 18.4199 93.4453 18.4199C94.2656 18.4199 94.9922 18.332 95.625 18.1562C96.2695 17.9805 96.8086 17.7871 97.2422 17.5762C97.6875 17.3652 98.0273 17.1719 98.2617 16.9961C98.4961 16.8086 98.625 16.7031 98.6484 16.6797C98.7773 16.5508 98.9297 16.4863 99.1055 16.4863C99.2812 16.4863 99.4336 16.5566 99.5625 16.6973C99.7031 16.8262 99.7734 16.9785 99.7734 17.1543C99.7734 17.3535 99.7031 17.5117 99.5625 17.6289C99.5391 17.6523 99.3867 17.7754 99.1055 17.998C98.8359 18.2207 98.4375 18.4668 97.9102 18.7363C97.3945 18.9941 96.7617 19.2285 96.0117 19.4395C95.2617 19.6504 94.4062 19.7559 93.4453 19.7559C92.5664 19.7559 91.7227 19.6094 90.9141 19.3164C90.1172 19.0234 89.4141 18.6016 88.8047 18.0508C88.207 17.4883 87.7266 16.8145 87.3633 16.0293C87.0117 15.2324 86.8359 14.3359 86.8359 13.3398C86.8359 12.25 87.0586 11.2012 87.5039 10.1934C87.9609 9.17383 88.5938 8.22461 89.4023 7.3457C90.2227 6.45508 91.2012 5.64648 92.3379 4.91992C93.4746 4.18164 94.7344 3.55469 96.1172 3.03906C97.5 2.51172 98.9824 2.10742 100.564 1.82617C102.146 1.5332 103.787 1.38672 105.486 1.38672C107.35 1.38672 109.061 1.59766 110.619 2.01953C112.178 2.44141 113.514 3.05078 114.627 3.84766C115.752 4.64453 116.625 5.61719 117.246 6.76562C117.867 7.90234 118.178 9.19727 118.178 10.6504ZM107.736 6.4668C107.912 6.4668 108.064 6.53125 108.193 6.66016C108.334 6.77734 108.404 6.93555 108.404 7.13477C108.404 7.25195 108.369 7.35742 108.299 7.45117C108.24 7.54492 108.164 7.63281 108.07 7.71484C107.414 8.23047 106.887 8.78711 106.488 9.38477C106.102 9.98242 105.803 10.627 105.592 11.3184C105.393 11.998 105.258 12.7246 105.188 13.498C105.129 14.2715 105.1 15.0801 105.1 15.9238V18.1387C105.1 19.5918 104.971 20.9746 104.713 22.2871C104.455 23.5879 104.016 24.7305 103.395 25.7148C102.785 26.6992 101.965 27.4785 100.934 28.0527C99.9023 28.6387 98.6074 28.9316 97.0488 28.9316C96.3457 28.9316 95.6543 28.8438 94.9746 28.668C94.3066 28.5039 93.6738 28.2637 93.0762 27.9473C92.4785 27.6191 91.9277 27.2207 91.4238 26.752C90.9199 26.2832 90.4863 25.7559 90.123 25.1699C90.0996 25.123 90.0762 25.0703 90.0527 25.0117C90.0293 24.9414 90.0176 24.877 90.0176 24.8184C90.0176 24.6543 90.0762 24.5078 90.1934 24.3789C90.3223 24.2383 90.4863 24.168 90.6855 24.168C90.8027 24.168 90.9082 24.2031 91.002 24.2734C91.1074 24.332 91.1953 24.4082 91.2656 24.502C92.0156 25.5449 92.8652 26.3301 93.8145 26.8574C94.7637 27.373 95.8418 27.6309 97.0488 27.6309C98.4316 27.6309 99.5566 27.3789 100.424 26.875C101.303 26.3594 101.988 25.6621 102.48 24.7832C102.984 23.8926 103.324 22.8555 103.5 21.6719C103.688 20.4883 103.781 19.2285 103.781 17.8926V15.6602C103.781 14.875 103.816 14.0664 103.887 13.2344C103.957 12.3906 104.115 11.5703 104.361 10.7734C104.619 9.96484 104.982 9.20313 105.451 8.48828C105.932 7.76172 106.576 7.12305 107.385 6.57227C107.432 6.54883 107.49 6.52539 107.561 6.50195C107.631 6.47852 107.689 6.4668 107.736 6.4668ZM129.99 23.0957C129.943 23.1895 129.844 23.3887 129.691 23.6934C129.551 23.9863 129.363 24.3262 129.129 24.7129C128.906 25.0996 128.643 25.5039 128.338 25.9258C128.033 26.3477 127.693 26.7344 127.318 27.0859C126.943 27.4375 126.539 27.7305 126.105 27.9648C125.672 28.1875 125.215 28.2988 124.734 28.2988C124.055 28.2988 123.48 28.082 123.012 27.6484C122.555 27.2148 122.221 26.6699 122.01 26.0137C121.611 26.6816 121.137 27.2148 120.586 27.6133C120.035 28 119.484 28.1934 118.934 28.1934C118.5 28.1934 118.107 28.1172 117.756 27.9648C117.404 27.8008 117.105 27.5781 116.859 27.2969C116.613 27.0039 116.42 26.6641 116.279 26.2773C116.15 25.8906 116.086 25.4688 116.086 25.0117C116.086 24.0977 116.238 23.2949 116.543 22.6035C116.859 21.9004 117.258 21.3145 117.738 20.8457C118.219 20.377 118.746 20.0254 119.32 19.791C119.906 19.5566 120.469 19.4395 121.008 19.4395C121.371 19.4395 121.705 19.4922 122.01 19.5977C122.314 19.6914 122.572 19.7969 122.783 19.9141C123.006 20.0312 123.176 20.1426 123.293 20.248C123.41 20.3418 123.475 20.3945 123.486 20.4062C123.615 20.5586 123.68 20.7168 123.68 20.8809C123.68 21.0566 123.615 21.2148 123.486 21.3555C123.357 21.4844 123.205 21.5488 123.029 21.5488C122.842 21.5488 122.684 21.4844 122.555 21.3555C122.531 21.332 122.479 21.291 122.396 21.2324C122.314 21.1621 122.203 21.0918 122.062 21.0215C121.922 20.9512 121.752 20.8926 121.553 20.8457C121.365 20.7871 121.148 20.7578 120.902 20.7578C120.539 20.7578 120.152 20.8398 119.742 21.0039C119.332 21.168 118.957 21.4258 118.617 21.7773C118.277 22.1172 117.99 22.5508 117.756 23.0781C117.533 23.5938 117.422 24.209 117.422 24.9238C117.422 25.1465 117.445 25.375 117.492 25.6094C117.539 25.832 117.621 26.0371 117.738 26.2246C117.855 26.4121 118.014 26.5645 118.213 26.6816C118.412 26.7988 118.658 26.8574 118.951 26.8574C119.162 26.8574 119.402 26.7871 119.672 26.6465C119.953 26.5059 120.217 26.2891 120.463 25.9961C120.721 25.7031 120.949 25.334 121.148 24.8887C121.359 24.4434 121.506 23.916 121.588 23.3066C121.611 23.1426 121.688 23.0078 121.816 22.9023C121.945 22.7852 122.098 22.7266 122.273 22.7266C122.438 22.7266 122.578 22.791 122.695 22.9199C122.824 23.0488 122.895 23.1953 122.906 23.3594C122.918 23.582 122.941 23.8984 122.977 24.3086C123.012 24.707 123.088 25.1055 123.205 25.5039C123.334 25.9023 123.521 26.248 123.768 26.541C124.014 26.834 124.354 26.9805 124.787 26.9805C125.068 26.9805 125.344 26.9043 125.613 26.752C125.895 26.5996 126.164 26.4004 126.422 26.1543C126.691 25.8965 126.943 25.6094 127.178 25.293C127.424 24.9648 127.646 24.6367 127.846 24.3086C128.045 23.9805 128.221 23.6641 128.373 23.3594C128.525 23.0547 128.654 22.791 128.76 22.5684C128.818 22.4395 128.9 22.3398 129.006 22.2695C129.123 22.1992 129.246 22.1641 129.375 22.1641C129.574 22.1641 129.732 22.2402 129.85 22.3926C129.979 22.5332 130.043 22.6855 130.043 22.8496C130.043 22.9316 130.025 23.0137 129.99 23.0957ZM130.729 21.4961C130.658 21.6836 130.57 21.8945 130.465 22.1289C130.371 22.3633 130.26 22.6094 130.131 22.8672C130.025 23.0664 129.914 23.2246 129.797 23.3418C129.691 23.4473 129.551 23.5 129.375 23.5C129.176 23.5 129.018 23.4414 128.9 23.3242C128.783 23.1953 128.725 23.0488 128.725 22.8848C128.725 22.8262 128.73 22.7793 128.742 22.7441C128.754 22.6973 128.783 22.627 128.83 22.5332C129.135 21.9473 129.357 21.4375 129.498 21.0039C129.65 20.5586 129.773 20.0957 129.867 19.6152C129.785 19.3457 129.727 19.1172 129.691 18.9297C129.656 18.7422 129.639 18.5488 129.639 18.3496C129.639 17.9629 129.721 17.6523 129.885 17.418C130.049 17.1719 130.277 17.0488 130.57 17.0488C130.84 17.0488 131.051 17.166 131.203 17.4004C131.367 17.6348 131.449 17.9219 131.449 18.2617C131.449 18.4492 131.432 18.6367 131.396 18.8242C131.361 19.0117 131.314 19.2461 131.256 19.5273C131.525 20.1953 131.795 20.7871 132.064 21.3027C132.334 21.8184 132.574 22.293 132.785 22.7266C132.996 23.1484 133.166 23.5469 133.295 23.9219C133.436 24.2969 133.506 24.6719 133.506 25.0469C133.506 25.5391 133.406 26.0078 133.207 26.4531C133.008 26.8984 132.68 27.2734 132.223 27.5781C132.281 27.5898 132.34 27.5957 132.398 27.5957C132.457 27.5957 132.516 27.5957 132.574 27.5957C133.242 27.5957 133.857 27.4434 134.42 27.1387C134.982 26.834 135.486 26.4414 135.932 25.9609C136.389 25.4688 136.793 24.9297 137.145 24.3438C137.496 23.7461 137.801 23.1543 138.059 22.5684C138.176 22.2988 138.34 22.1641 138.551 22.1641C138.75 22.1641 138.902 22.2344 139.008 22.375C139.125 22.5156 139.184 22.668 139.184 22.832C139.184 22.9258 139.166 23.0137 139.131 23.0957C139.002 23.4121 138.832 23.7754 138.621 24.1855C138.422 24.584 138.176 25 137.883 25.4336C137.602 25.8555 137.273 26.2715 136.898 26.6816C136.523 27.0918 136.102 27.4609 135.633 27.7891C135.176 28.1055 134.672 28.3574 134.121 28.5449C133.57 28.7441 132.967 28.8438 132.311 28.8438C131.525 28.8438 130.793 28.7031 130.113 28.4219C129.445 28.1523 128.9 27.7012 128.479 27.0684C128.408 26.9629 128.373 26.8516 128.373 26.7344C128.373 26.5586 128.438 26.4062 128.566 26.2773C128.707 26.1367 128.865 26.0664 129.041 26.0664C129.229 26.0664 129.387 26.1309 129.516 26.2598C129.527 26.2832 129.568 26.3242 129.639 26.3828C129.709 26.4297 129.791 26.4883 129.885 26.5586C129.99 26.6172 130.107 26.6699 130.236 26.7168C130.377 26.7637 130.518 26.7871 130.658 26.7871C130.939 26.7871 131.174 26.7285 131.361 26.6113C131.561 26.4941 131.719 26.3535 131.836 26.1895C131.953 26.0137 132.035 25.832 132.082 25.6445C132.141 25.4453 132.17 25.2754 132.17 25.1348C132.17 24.8418 132.123 24.5488 132.029 24.2559C131.936 23.9629 131.812 23.6699 131.66 23.377C131.52 23.084 131.361 22.7852 131.186 22.4805C131.021 22.1641 130.869 21.8359 130.729 21.4961ZM152.156 10.4043C152.156 10.5918 152.092 10.7441 151.963 10.8613C151.834 10.9668 151.676 11.0195 151.488 11.0195H142.576V11.2129C142.576 11.9277 142.523 12.6895 142.418 13.498C142.312 14.3066 142.166 15.1152 141.979 15.9238C141.803 16.7207 141.598 17.5 141.363 18.2617C141.141 19.0234 140.906 19.7266 140.66 20.3711C140.426 21.0156 140.191 21.5781 139.957 22.0586C139.723 22.5273 139.512 22.8789 139.324 23.1133C139.477 23.6523 139.658 24.1562 139.869 24.625C140.08 25.082 140.314 25.4863 140.572 25.8379C140.842 26.1777 141.129 26.4473 141.434 26.6465C141.738 26.8457 142.066 26.9453 142.418 26.9453C142.828 26.9453 143.232 26.7754 143.631 26.4355C144.041 26.084 144.416 25.6738 144.756 25.2051C145.107 24.7246 145.412 24.2441 145.67 23.7637C145.939 23.2715 146.133 22.8789 146.25 22.5859C146.367 22.3047 146.572 22.1641 146.865 22.1641C147.064 22.1641 147.223 22.2344 147.34 22.375C147.469 22.5156 147.533 22.668 147.533 22.832C147.533 22.9141 147.516 22.9961 147.48 23.0781C147.445 23.1602 147.357 23.3477 147.217 23.6406C147.088 23.9336 146.912 24.2734 146.689 24.6602C146.479 25.0469 146.227 25.457 145.934 25.8906C145.652 26.3125 145.33 26.6992 144.967 27.0508C144.615 27.4023 144.234 27.6953 143.824 27.9297C143.414 28.1641 142.98 28.2812 142.523 28.2812C141.715 28.2812 140.988 28.0176 140.344 27.4902C139.699 26.9629 139.148 26.2246 138.691 25.2754C138.246 24.3262 137.906 23.2012 137.672 21.9004C137.438 20.5996 137.32 19.1758 137.32 17.6289C137.32 17.2422 137.326 16.791 137.338 16.2754C137.35 15.748 137.373 15.1973 137.408 14.623C137.443 14.0371 137.496 13.4395 137.566 12.8301C137.637 12.209 137.73 11.6055 137.848 11.0195H131.537C131.35 11.0195 131.191 10.9668 131.062 10.8613C130.934 10.7441 130.869 10.5918 130.869 10.4043C130.869 10.2168 130.934 10.0703 131.062 9.96484C131.191 9.84766 131.35 9.78906 131.537 9.78906H138.146C138.264 9.36719 138.398 8.98047 138.551 8.62891C138.715 8.27734 138.896 7.97266 139.096 7.71484C139.307 7.45703 139.535 7.25781 139.781 7.11719C140.039 6.96484 140.32 6.88867 140.625 6.88867C140.918 6.88867 141.17 6.96484 141.381 7.11719C141.604 7.25781 141.791 7.45703 141.943 7.71484C142.096 7.97266 142.213 8.27734 142.295 8.62891C142.389 8.98047 142.459 9.36719 142.506 9.78906H151.488C151.676 9.78906 151.834 9.84766 151.963 9.96484C152.092 10.0703 152.156 10.2168 152.156 10.4043ZM138.92 21.3555C139.271 20.582 139.588 19.75 139.869 18.8594C140.162 17.957 140.408 17.0488 140.607 16.1348C140.818 15.2207 140.977 14.3242 141.082 13.4453C141.199 12.5664 141.258 11.7578 141.258 11.0195H139.184C139.02 11.7461 138.885 12.6484 138.779 13.7266C138.686 14.793 138.639 16.0938 138.639 17.6289C138.639 18.4844 138.662 19.2051 138.709 19.791C138.756 20.3652 138.826 20.8867 138.92 21.3555ZM140.555 8.20703C140.449 8.20703 140.297 8.32422 140.098 8.55859C139.898 8.78125 139.699 9.19141 139.5 9.78906H141.188C141.129 9.29688 141.041 8.91016 140.924 8.62891C140.818 8.34766 140.695 8.20703 140.555 8.20703ZM139.201 22.6211V22.6387V22.6211ZM148.166 20.7754C148.119 21.0918 148.061 21.3906 147.99 21.6719C147.92 21.9414 147.85 22.1816 147.779 22.3926C147.721 22.5918 147.668 22.7559 147.621 22.8848C147.574 23.0137 147.545 23.084 147.533 23.0957C147.416 23.3652 147.211 23.5 146.918 23.5C146.754 23.5 146.602 23.4414 146.461 23.3242C146.32 23.1953 146.25 23.0371 146.25 22.8496C146.25 22.7793 146.262 22.7266 146.285 22.6914C146.309 22.6562 146.344 22.5859 146.391 22.4805C146.438 22.375 146.496 22.1992 146.566 21.9531C146.637 21.707 146.725 21.3262 146.83 20.8105C146.631 20.8105 146.426 20.8047 146.215 20.793C146.004 20.7812 145.811 20.7402 145.635 20.6699C145.447 20.5996 145.295 20.4883 145.178 20.3359C145.061 20.1836 145.002 19.9727 145.002 19.7031C145.002 19.5039 145.061 19.2344 145.178 18.8945C145.283 18.5547 145.43 18.2207 145.617 17.8926C145.805 17.5645 146.016 17.2832 146.25 17.0488C146.484 16.8027 146.719 16.6797 146.953 16.6797C147.223 16.6797 147.439 16.7793 147.604 16.9785C147.779 17.1777 147.914 17.4238 148.008 17.7168C148.102 17.998 148.166 18.2969 148.201 18.6133C148.248 18.9297 148.271 19.2051 148.271 19.4395C148.471 19.4395 148.664 19.4395 148.852 19.4395C149.051 19.4277 149.238 19.4219 149.414 19.4219C150.082 19.4219 150.592 19.5684 150.943 19.8613C151.295 20.1543 151.471 20.6348 151.471 21.3027C151.471 21.5723 151.453 21.8535 151.418 22.1465C151.383 22.4395 151.342 22.7441 151.295 23.0605C151.248 23.3652 151.207 23.6699 151.172 23.9746C151.137 24.2793 151.119 24.5781 151.119 24.8711C151.119 25.293 151.178 25.6445 151.295 25.9258C151.412 26.1953 151.559 26.4121 151.734 26.5762C151.91 26.7402 152.098 26.8574 152.297 26.9277C152.496 26.9863 152.678 27.0156 152.842 27.0156C153.346 27.0156 153.82 26.8516 154.266 26.5234C154.711 26.1953 155.121 25.8027 155.496 25.3457C155.871 24.877 156.205 24.3848 156.498 23.8691C156.803 23.3535 157.055 22.9023 157.254 22.5156C157.312 22.4102 157.395 22.3281 157.5 22.2695C157.605 22.2109 157.717 22.1816 157.834 22.1816C158.045 22.1816 158.209 22.252 158.326 22.3926C158.443 22.5215 158.502 22.668 158.502 22.832C158.502 22.9492 158.479 23.0547 158.432 23.1484C158.162 23.6289 157.846 24.1738 157.482 24.7832C157.131 25.3809 156.727 25.9434 156.27 26.4707C155.812 26.998 155.297 27.4434 154.723 27.8066C154.16 28.1699 153.539 28.3516 152.859 28.3516C152.438 28.3516 152.039 28.2695 151.664 28.1055C151.289 27.9531 150.961 27.7305 150.68 27.4375C150.41 27.1328 150.193 26.7637 150.029 26.3301C149.865 25.8848 149.783 25.3867 149.783 24.8359C149.783 24.25 149.842 23.6699 149.959 23.0957C150.076 22.5098 150.135 21.9531 150.135 21.4258C150.135 21.2031 150.082 21.0391 149.977 20.9336C149.883 20.8164 149.666 20.7578 149.326 20.7578C149.162 20.7578 148.98 20.7578 148.781 20.7578C148.594 20.7578 148.389 20.7637 148.166 20.7754ZM146.988 19.4746C146.988 19.3926 146.982 19.2871 146.971 19.1582C146.971 19.0176 146.959 18.8828 146.936 18.7539C146.924 18.625 146.9 18.5137 146.865 18.4199C146.842 18.3262 146.812 18.2793 146.777 18.2793C146.742 18.2793 146.695 18.3262 146.637 18.4199C146.59 18.502 146.537 18.6074 146.479 18.7363C146.42 18.8535 146.367 18.9824 146.32 19.123C146.273 19.2637 146.238 19.3809 146.215 19.4746H146.988ZM160.119 14.2012C160.119 14.6465 159.961 15.0273 159.645 15.3438C159.34 15.6484 158.965 15.8008 158.52 15.8008C158.074 15.8008 157.693 15.6484 157.377 15.3438C157.072 15.0273 156.92 14.6465 156.92 14.2012C156.92 13.9785 156.961 13.7734 157.043 13.5859C157.125 13.3867 157.236 13.2168 157.377 13.0762C157.529 12.9238 157.699 12.8066 157.887 12.7246C158.086 12.6426 158.297 12.6016 158.52 12.6016C158.742 12.6016 158.947 12.6426 159.135 12.7246C159.334 12.8066 159.504 12.9238 159.645 13.0762C159.797 13.2168 159.914 13.3867 159.996 13.5859C160.078 13.7734 160.119 13.9785 160.119 14.2012ZM157.271 24.502C157.271 22.8145 157.377 21.1328 157.588 19.457C157.611 19.293 157.682 19.1523 157.799 19.0352C157.928 18.9062 158.092 18.8418 158.291 18.8418C158.467 18.8418 158.613 18.9121 158.73 19.0527C158.848 19.1816 158.906 19.334 158.906 19.5098C158.906 19.5801 158.889 19.791 158.854 20.1426C158.83 20.4941 158.795 20.916 158.748 21.4082C158.713 21.8887 158.678 22.4043 158.643 22.9551C158.619 23.4941 158.607 23.9922 158.607 24.4492C158.607 25.0703 158.666 25.5742 158.783 25.9609C158.912 26.3359 159.07 26.6289 159.258 26.8398C159.457 27.0508 159.662 27.1914 159.873 27.2617C160.096 27.332 160.307 27.3672 160.506 27.3672C160.834 27.3672 161.174 27.25 161.525 27.0156C161.877 26.7812 162.234 26.4531 162.598 26.0312C162.973 25.6094 163.348 25.1055 163.723 24.5195C164.098 23.9219 164.467 23.2598 164.83 22.5332C164.889 22.416 164.971 22.3281 165.076 22.2695C165.182 22.1992 165.299 22.1641 165.428 22.1641C165.615 22.1641 165.768 22.2344 165.885 22.375C166.014 22.5156 166.078 22.668 166.078 22.832C166.078 22.9492 166.055 23.0488 166.008 23.1309C165.867 23.4004 165.691 23.7285 165.48 24.1152C165.27 24.502 165.029 24.9004 164.76 25.3105C164.49 25.7207 164.191 26.1309 163.863 26.541C163.547 26.9395 163.207 27.3027 162.844 27.6309C162.48 27.9473 162.1 28.2051 161.701 28.4043C161.303 28.6035 160.898 28.7031 160.488 28.7031C159.961 28.7031 159.498 28.5918 159.1 28.3691C158.701 28.1465 158.361 27.8477 158.08 27.4727C157.811 27.0977 157.605 26.6582 157.465 26.1543C157.336 25.6387 157.271 25.0879 157.271 24.502ZM159.135 14.2012C159.135 14.0371 159.07 13.8965 158.941 13.7793C158.824 13.6504 158.684 13.5859 158.52 13.5859C158.355 13.5859 158.215 13.6504 158.098 13.7793C157.98 13.8965 157.922 14.0371 157.922 14.2012C157.922 14.3652 157.98 14.5059 158.098 14.623C158.215 14.7402 158.355 14.7988 158.52 14.7988C158.684 14.7988 158.824 14.7402 158.941 14.623C159.07 14.5059 159.135 14.3652 159.135 14.2012ZM166.922 26.0664C167.168 26.4062 167.484 26.6816 167.871 26.8926C168.258 27.0918 168.732 27.1914 169.295 27.1914C169.869 27.1914 170.391 27.0566 170.859 26.7871C171.328 26.5059 171.756 26.1426 172.143 25.6973C172.529 25.252 172.875 24.7539 173.18 24.2031C173.484 23.6523 173.76 23.1016 174.006 22.5508C174.064 22.4219 174.146 22.3281 174.252 22.2695C174.357 22.1992 174.475 22.1641 174.604 22.1641C174.803 22.1641 174.961 22.2344 175.078 22.375C175.207 22.5156 175.271 22.668 175.271 22.832C175.271 22.8906 175.266 22.9434 175.254 22.9902C175.242 23.0254 175.225 23.0664 175.201 23.1133C174.393 24.8945 173.508 26.2363 172.547 27.1387C171.598 28.041 170.52 28.5039 169.312 28.5273C168.539 28.5273 167.871 28.375 167.309 28.0703C166.746 27.7773 166.283 27.3965 165.92 26.9277C165.557 26.4473 165.287 25.9082 165.111 25.3105C164.936 24.7129 164.848 24.1152 164.848 23.5176C164.848 22.9199 164.918 22.3691 165.059 21.8652C165.211 21.3613 165.422 20.9219 165.691 20.5469C165.973 20.1719 166.301 19.8789 166.676 19.668C167.062 19.457 167.484 19.3516 167.941 19.3516C168.211 19.3516 168.475 19.4102 168.732 19.5273C169.002 19.6328 169.242 19.791 169.453 20.002C169.664 20.2012 169.834 20.4473 169.963 20.7402C170.092 21.0332 170.156 21.3672 170.156 21.7422C170.156 22.2227 170.074 22.6738 169.91 23.0957C169.746 23.5176 169.518 23.9102 169.225 24.2734C168.943 24.6367 168.604 24.9707 168.205 25.2754C167.807 25.5801 167.379 25.8438 166.922 26.0664ZM166.395 24.9238C166.758 24.7715 167.086 24.5781 167.379 24.3438C167.684 24.1094 167.941 23.8516 168.152 23.5703C168.363 23.2891 168.527 22.9961 168.645 22.6914C168.762 22.375 168.82 22.0586 168.82 21.7422C168.82 21.3906 168.732 21.127 168.557 20.9512C168.381 20.7637 168.176 20.6699 167.941 20.6699C167.625 20.6699 167.355 20.7578 167.133 20.9336C166.91 21.1094 166.729 21.3379 166.588 21.6191C166.447 21.9004 166.342 22.2168 166.271 22.5684C166.213 22.9082 166.184 23.248 166.184 23.5879C166.184 23.7988 166.201 24.0215 166.236 24.2559C166.283 24.4902 166.336 24.7129 166.395 24.9238ZM175.975 21.4961C175.904 21.6836 175.816 21.8945 175.711 22.1289C175.617 22.3633 175.506 22.6094 175.377 22.8672C175.271 23.0664 175.16 23.2246 175.043 23.3418C174.938 23.4473 174.797 23.5 174.621 23.5C174.422 23.5 174.264 23.4414 174.146 23.3242C174.029 23.1953 173.971 23.0488 173.971 22.8848C173.971 22.8262 173.977 22.7793 173.988 22.7441C174 22.6973 174.029 22.627 174.076 22.5332C174.381 21.9473 174.604 21.4375 174.744 21.0039C174.896 20.5586 175.02 20.0957 175.113 19.6152C175.031 19.3457 174.973 19.1172 174.938 18.9297C174.902 18.7422 174.885 18.5488 174.885 18.3496C174.885 17.9629 174.967 17.6523 175.131 17.418C175.295 17.1719 175.523 17.0488 175.816 17.0488C176.086 17.0488 176.297 17.166 176.449 17.4004C176.613 17.6348 176.695 17.9219 176.695 18.2617C176.695 18.4492 176.678 18.6367 176.643 18.8242C176.607 19.0117 176.561 19.2461 176.502 19.5273C176.771 20.1953 177.041 20.7871 177.311 21.3027C177.58 21.8184 177.82 22.293 178.031 22.7266C178.242 23.1484 178.412 23.5469 178.541 23.9219C178.682 24.2969 178.752 24.6719 178.752 25.0469C178.752 25.5391 178.652 26.0078 178.453 26.4531C178.254 26.8984 177.926 27.2734 177.469 27.5781C177.527 27.5898 177.586 27.5957 177.645 27.5957C177.703 27.5957 177.762 27.5957 177.82 27.5957C178.488 27.5957 179.104 27.4434 179.666 27.1387C180.229 26.834 180.732 26.4414 181.178 25.9609C181.635 25.4688 182.039 24.9297 182.391 24.3438C182.742 23.7461 183.047 23.1543 183.305 22.5684C183.422 22.2988 183.586 22.1641 183.797 22.1641C183.996 22.1641 184.148 22.2344 184.254 22.375C184.371 22.5156 184.43 22.668 184.43 22.832C184.43 22.9258 184.412 23.0137 184.377 23.0957C184.248 23.4121 184.078 23.7754 183.867 24.1855C183.668 24.584 183.422 25 183.129 25.4336C182.848 25.8555 182.52 26.2715 182.145 26.6816C181.77 27.0918 181.348 27.4609 180.879 27.7891C180.422 28.1055 179.918 28.3574 179.367 28.5449C178.816 28.7441 178.213 28.8438 177.557 28.8438C176.771 28.8438 176.039 28.7031 175.359 28.4219C174.691 28.1523 174.146 27.7012 173.725 27.0684C173.654 26.9629 173.619 26.8516 173.619 26.7344C173.619 26.5586 173.684 26.4062 173.812 26.2773C173.953 26.1367 174.111 26.0664 174.287 26.0664C174.475 26.0664 174.633 26.1309 174.762 26.2598C174.773 26.2832 174.814 26.3242 174.885 26.3828C174.955 26.4297 175.037 26.4883 175.131 26.5586C175.236 26.6172 175.354 26.6699 175.482 26.7168C175.623 26.7637 175.764 26.7871 175.904 26.7871C176.186 26.7871 176.42 26.7285 176.607 26.6113C176.807 26.4941 176.965 26.3535 177.082 26.1895C177.199 26.0137 177.281 25.832 177.328 25.6445C177.387 25.4453 177.416 25.2754 177.416 25.1348C177.416 24.8418 177.369 24.5488 177.275 24.2559C177.182 23.9629 177.059 23.6699 176.906 23.377C176.766 23.084 176.607 22.7852 176.432 22.4805C176.268 22.1641 176.115 21.8359 175.975 21.4961Z" fill="white"/>
</svg>
